<svg width="136" height="40" viewBox="0 0 136 40" fill="none" xmlns="http://www.w3.org/2000/svg">
<path d="M46.7171 6.3042C44.735 4.32209 42.4776 2.89057 39.9449 2.00964V5.89126C40.2753 6.05644 40.5781 6.22161 40.9085 6.41431C43.3035 7.81831 45.1755 9.66277 46.5244 11.9477C47.8458 14.2602 48.5065 16.8479 48.5065 19.6834C48.5065 22.5465 47.8458 25.1617 46.5244 27.5017C45.1755 29.8417 43.331 31.6862 40.9635 33.0351C38.596 34.384 36.0083 35.0723 33.2278 35.0723C29.0434 35.0723 25.4921 33.6132 22.5465 30.6676C20.5368 28.6579 19.1879 26.373 18.5822 23.7577L18.2794 22.3538C18.2244 22.0234 18.1693 21.693 18.1693 21.3627C18.1142 20.8672 18.0867 20.3716 18.0867 19.8486C18.0867 19.4907 18.0867 19.1053 18.1142 18.7474C18.1693 17.894 18.2794 17.0681 18.4721 16.2698C18.8025 14.7557 19.3531 13.3517 20.0964 12.0028C21.4453 9.66277 23.2897 7.81831 25.6848 6.41431C25.8224 6.33173 25.9601 6.24914 26.0977 6.19408V2.20234C25.2718 2.50516 24.501 2.9181 23.7302 3.35857C23.2897 3.60633 22.8768 3.88162 22.4914 4.15692C21.5003 2.97316 20.2615 2.00964 18.8025 1.29387C17.0406 0.412939 15.031 0 12.8286 0C9.13971 0 6.08396 1.18376 3.66139 3.55127C1.23882 5.91879 0 8.83689 0 12.3056C0 15.2787 0.825877 17.839 2.4501 20.0138C0.825877 22.106 0 24.5836 0 27.4191C0 30.6951 1.01858 33.5306 3.02822 35.8706C5.42326 38.6235 8.69924 40 12.8562 40C15.031 40 17.0131 39.5871 18.7749 38.7612C19.5458 38.4033 20.2891 37.9628 20.9498 37.4398C21.7206 36.8892 22.3813 36.2836 22.9594 35.5678C25.9876 37.5774 29.4563 38.5685 33.3654 38.5685C33.8334 38.5685 34.329 38.5409 34.7694 38.5134C39.4219 38.2106 43.4136 36.3937 46.7447 33.0626C50.3785 29.4012 52.223 24.9415 52.223 19.7109C52.223 14.3978 50.3785 9.93806 46.7171 6.3042ZM14.5905 22.5465C14.0674 22.629 13.5444 22.6566 12.9938 22.6566C10.1308 22.6566 7.73572 21.8032 5.80867 20.0688C6.33173 19.5733 6.93737 19.1328 7.59807 18.7749C9.19477 17.8665 10.9566 17.426 12.8562 17.426C13.4343 17.426 14.0124 17.4535 14.5354 17.5361C14.4529 18.3069 14.3978 19.0778 14.3978 19.8761C14.3978 20.7846 14.4529 21.693 14.5905 22.5465ZM3.82657 7.35031C4.73503 5.80867 5.97385 4.59738 7.59807 3.68892C9.19477 2.78045 10.9566 2.33999 12.8562 2.33999C14.5905 2.33999 16.1597 2.67034 17.6187 3.35857C18.7474 3.90915 19.7385 4.67997 20.6194 5.61597C19.1604 6.93737 17.9215 8.47901 16.903 10.2684C15.9945 11.8651 15.3338 13.5169 14.9484 15.2512C14.2602 15.1411 13.5444 15.086 12.8286 15.086C9.38747 15.086 6.4969 16.1046 4.15692 18.1968C3.05575 16.5726 2.50516 14.6731 2.50516 12.5258C2.50516 10.5988 2.94563 8.89195 3.82657 7.35031ZM20.9498 34.2739C18.8025 36.5864 16.1321 37.7701 12.9938 37.7701C9.96559 37.7701 7.46043 36.8066 5.47832 34.852C3.49621 32.925 2.50516 30.5024 2.50516 27.6118C2.50516 25.7123 2.94563 23.978 3.82657 22.4363C3.93668 22.2712 4.0468 22.0785 4.18445 21.9133C6.44184 23.9229 9.33242 24.914 12.8562 24.914C13.5994 24.914 14.3152 24.8589 15.0034 24.7488C15.8018 27.8871 17.426 30.6676 19.8761 33.0902C20.2615 33.4756 20.6469 33.8334 21.0599 34.1638C21.0323 34.1913 20.9773 34.2464 20.9498 34.2739Z" fill="black"/>
<path d="M57.3159 4.212H58.8851V5.94634C59.3531 5.25811 59.8486 4.76259 60.3717 4.40471C60.8947 4.04683 61.4178 3.90918 61.9959 3.90918C62.4088 3.90918 62.8768 4.04683 63.3448 4.32212L62.5465 5.61599C62.2161 5.47835 61.9684 5.39576 61.7481 5.39576C61.2251 5.39576 60.7571 5.61599 60.2615 6.02893C59.7935 6.44187 59.4357 7.10257 59.1879 7.98351C58.9952 8.67174 58.9126 10.0207 58.9126 12.0854V16.1046H57.3434V4.212H57.3159Z" fill="black"/>
<path d="M64.5837 4.212H66.1529V5.94634C66.6209 5.25811 67.1164 4.76259 67.6395 4.40471C68.1625 4.04683 68.6856 3.90918 69.2637 3.90918C69.6767 3.90918 70.1446 4.04683 70.6126 4.32212L69.8143 5.61599C69.484 5.47835 69.2362 5.39576 69.016 5.39576C68.4929 5.39576 68.0249 5.61599 67.5294 6.02893C67.0614 6.44187 66.7035 7.10257 66.4557 7.98351C66.263 8.67174 66.1804 10.0207 66.1804 12.0854V16.1046H64.6113V4.212H64.5837Z" fill="black"/>
<path d="M82.4776 12.168L83.7715 12.8562C83.3585 13.6821 82.863 14.3428 82.3124 14.8658C81.7618 15.3613 81.1287 15.7743 80.4404 16.022C79.7522 16.2973 78.9539 16.435 78.1005 16.435C76.1734 16.435 74.6593 15.8018 73.5581 14.5355C72.457 13.2691 71.9064 11.8376 71.9064 10.2134C71.9064 8.69927 72.3744 7.35033 73.2828 6.19411C74.4666 4.70753 76.0358 3.93671 77.9903 3.93671C80.0275 3.93671 81.6242 4.70753 82.8355 6.24916C83.6889 7.3228 84.1294 8.69927 84.1569 10.3235H73.4755C73.5031 11.7 73.9435 12.8287 74.7969 13.7096C75.6503 14.5905 76.6965 15.031 77.9628 15.031C78.5684 15.031 79.1466 14.9209 79.7247 14.7006C80.3028 14.4804 80.7708 14.2051 81.1837 13.8748C81.5691 13.4894 82.0096 12.9388 82.4776 12.168ZM82.4776 8.94703C82.2849 8.12115 81.9821 7.48798 81.5967 6.99245C81.2113 6.49693 80.6882 6.11152 80.055 5.8087C79.4219 5.50587 78.7336 5.36823 78.0179 5.36823C76.8616 5.36823 75.8431 5.75364 75.0172 6.49693C74.4115 7.04751 73.9435 7.87339 73.6407 8.94703H82.4776Z" fill="black"/>
<path d="M87.5705 4.212H89.1121V6.33176C89.7178 5.50588 90.406 4.90024 91.1493 4.4873C91.8926 4.07436 92.6909 3.88165 93.5719 3.88165C94.4528 3.88165 95.2512 4.10189 95.9394 4.56988C96.6276 5.03788 97.1232 5.616 97.4535 6.38681C97.7839 7.15763 97.949 8.34139 97.949 9.96562V16.0771H96.4074V10.4336C96.4074 9.05715 96.3523 8.14869 96.2422 7.68069C96.077 6.88234 95.7192 6.30423 95.2236 5.91882C94.7006 5.50588 94.0399 5.31317 93.2415 5.31317C92.3055 5.31317 91.4797 5.616 90.7639 6.22164C90.0206 6.82728 89.5526 7.5981 89.3048 8.50657C89.1672 9.08468 89.0846 10.1859 89.0846 11.7275V16.0771H87.543V4.212H87.5705Z" fill="black"/>
<path d="M113.283 6.68963L112.072 7.43292C111.026 6.02893 109.594 5.3407 107.777 5.3407C106.318 5.3407 105.134 5.8087 104.171 6.74469C103.207 7.68068 102.739 8.80938 102.739 10.1308C102.739 10.9842 102.96 11.8101 103.4 12.5809C103.84 13.3517 104.446 13.9298 105.217 14.3703C105.988 14.7832 106.841 15.0035 107.805 15.0035C109.539 15.0035 110.971 14.3152 112.072 12.9112L113.283 13.7096C112.705 14.563 111.962 15.2237 110.998 15.6917C110.035 16.1597 108.961 16.4075 107.722 16.4075C105.85 16.4075 104.281 15.8018 103.042 14.6181C101.803 13.4343 101.198 11.9752 101.198 10.2684C101.198 9.11221 101.473 8.03856 102.079 7.07504C102.657 6.08399 103.455 5.31317 104.474 4.76258C105.492 4.212 106.621 3.93671 107.86 3.93671C108.658 3.93671 109.401 4.04682 110.145 4.29459C110.888 4.54235 111.494 4.84517 112.017 5.23058C112.54 5.61599 112.925 6.08399 113.283 6.68963Z" fill="black"/>
<path d="M115.513 4.21198H117.137L121.211 13.3517L125.176 4.21198H126.8L119.697 20.4542H118.101L120.385 15.1961L115.513 4.21198Z" fill="black"/>
<path d="M57.3435 24.391H58.8851V26.5107C59.4908 25.6848 60.179 25.0792 60.9223 24.6663C61.6656 24.2533 62.4639 24.0606 63.3449 24.0606C64.2258 24.0606 65.0242 24.2808 65.7124 24.7488C66.4006 25.2168 66.8962 25.8225 67.2265 26.5658C67.5569 27.3366 67.722 28.5203 67.722 30.1446V36.2561H66.1804V30.585C66.1804 29.2086 66.1253 28.3001 66.0152 27.8321C65.85 27.0338 65.4922 26.4557 64.9966 26.0427C64.5011 25.6573 63.8404 25.4371 63.0421 25.4371C62.1061 25.4371 61.2802 25.7399 60.5644 26.3455C59.8211 26.9512 59.3531 27.722 59.1054 28.6305C58.9677 29.2086 58.8851 30.3097 58.8851 31.8514V36.201H57.3435V24.391Z" fill="black"/>
<path d="M70.4475 24.3909H72.0717L76.0635 33.0626L80.0002 24.3909H81.6519L76.2011 36.2836H75.9258L70.4475 24.3909Z" fill="black"/>
<path d="M94.5355 32.3469L95.8293 33.0351C95.4164 33.861 94.9209 34.5217 94.3703 35.0448C93.8197 35.5403 93.1865 35.9532 92.4983 36.201C91.8101 36.4763 91.0117 36.6139 90.1583 36.6139C88.2037 36.6139 86.6896 35.9808 85.616 34.7144C84.5148 33.4481 83.9642 32.0166 83.9642 30.3923C83.9642 28.8782 84.4322 27.5293 85.3407 26.3731C86.5245 24.8865 88.0936 24.1157 90.0482 24.1157C92.0854 24.1157 93.6821 24.8865 94.8933 26.4281C95.7468 27.5018 96.1872 28.8782 96.2148 30.5024H85.5059C85.5334 31.8789 85.9739 33.0076 86.8273 33.8885C87.6807 34.7695 88.7268 35.2099 89.9931 35.2099C90.5988 35.2099 91.1769 35.0998 91.755 34.9071C92.3331 34.7144 92.8011 34.4116 93.2141 34.0813C93.627 33.6958 94.0675 33.1177 94.5355 32.3469ZM94.5355 29.1535C94.3428 28.3276 94.0399 27.6945 93.6545 27.1989C93.2691 26.7034 92.7461 26.318 92.1129 26.0152C91.4797 25.7124 90.7915 25.5747 90.0757 25.5747C88.9195 25.5747 87.9009 25.9601 87.075 26.7034C86.4694 27.254 86.0014 28.0799 85.6986 29.1535H94.5355Z" fill="black"/>
<path d="M99.0504 24.391H100.62V26.1528C101.088 25.4646 101.583 24.9415 102.106 24.6112C102.629 24.2808 103.152 24.1157 103.73 24.1157C104.143 24.1157 104.611 24.2533 105.079 24.5286L104.281 25.8225C103.951 25.6848 103.703 25.6022 103.483 25.6022C102.96 25.6022 102.492 25.8225 101.996 26.2354C101.501 26.6484 101.17 27.3091 100.922 28.19C100.73 28.8782 100.647 30.2272 100.647 32.2918V36.3111H99.078V24.391H99.0504Z" fill="black"/>
<path d="M108.245 19.9863H109.787V24.3909H112.209V25.7124H109.787V36.2836H108.245V25.7124H106.153V24.3909H108.245V19.9863Z" fill="black"/>
<path d="M125.065 32.3469L126.359 33.0351C125.946 33.861 125.451 34.5217 124.9 35.0448C124.35 35.5403 123.717 35.9532 123.028 36.201C122.34 36.4763 121.542 36.6139 120.688 36.6139C118.734 36.6139 117.22 35.9808 116.146 34.7144C115.045 33.4481 114.494 32.0166 114.494 30.3923C114.494 28.8782 114.962 27.5293 115.871 26.3731C117.054 24.8865 118.624 24.1157 120.578 24.1157C122.615 24.1157 124.212 24.8865 125.423 26.4281C126.277 27.5018 126.717 28.8782 126.745 30.5024H116.036C116.063 31.8789 116.504 33.0076 117.357 33.8885C118.211 34.7695 119.257 35.2099 120.523 35.2099C121.129 35.2099 121.707 35.0998 122.285 34.9071C122.863 34.7144 123.331 34.4116 123.744 34.0813C124.185 33.6958 124.597 33.1177 125.065 32.3469ZM125.065 29.1535C124.873 28.3276 124.57 27.6945 124.185 27.1989C123.799 26.7034 123.276 26.318 122.643 26.0152C122.01 25.7124 121.322 25.5747 120.606 25.5747C119.45 25.5747 118.431 25.9601 117.605 26.7034C116.999 27.254 116.531 28.0799 116.229 29.1535H125.065Z" fill="black"/>
<path d="M129.58 24.391H131.149V26.1528C131.617 25.4646 132.113 24.9415 132.636 24.6112C133.159 24.2808 133.682 24.1157 134.26 24.1157C134.673 24.1157 135.141 24.2533 135.609 24.5286L134.811 25.8225C134.48 25.6848 134.233 25.6022 134.012 25.6022C133.489 25.6022 133.021 25.8225 132.526 26.2354C132.03 26.6484 131.7 27.3091 131.452 28.19C131.259 28.8782 131.177 30.2272 131.177 32.2918V36.3111H129.608V24.391H129.58Z" fill="black"/>
</svg>
