<svg width="40" height="40" viewBox="0 0 40 40" fill="none" xmlns="http://www.w3.org/2000/svg">
<circle cx="20" cy="20" r="19.5" fill="#63B4FF" fill-opacity="0.1" stroke="#63B4FF"/>
<path d="M26.6926 14.0533C25.0536 12.2041 22.6686 11.0344 20 11.0344C15.048 11.0344 11.0345 15.0479 11.0345 19.9999H13.2759C13.2759 16.2842 16.2842 13.2758 20 13.2758C22.0488 13.2758 23.8664 14.2039 25.0956 15.6503L22.9873 17.7586H28.9655V11.7804L26.6926 14.0533ZM20 26.7241C17.9512 26.7241 16.1336 25.796 14.9044 24.3496L17.0127 22.2413H11.0345V28.2195L13.3074 25.9466C14.9464 27.7957 17.3349 28.9655 20 28.9655C24.952 28.9655 28.9655 24.952 28.9655 19.9999H26.7241C26.7241 23.7157 23.7158 26.7241 20 26.7241Z" fill="#63B4FF"/>
</svg>
